<mxfile host="app.diagrams.net" modified="2024-01-26T08:29:33.296Z" agent="Mozilla/5.0 (Windows NT 10.0; Win64; x64) AppleWebKit/537.36 (KHTML, like Gecko) Chrome/120.0.0.0 Safari/537.36" version="22.1.20" etag="Nm9s2N-sVTA9cCcY049c" type="github">
  <diagram name="Page-1" id="fjUipEJktfNu8JanFehA">
    <mxGraphModel>
      <root>
        <mxCell id="0" />
        <mxCell id="1" parent="0" />
      </root>
    </mxGraphModel>
  </diagram>
</mxfile>
